# xmcd
#
# Track frame offsets:
#	150
#	26429
#	52909
#	76655
#	98932
#	112946
#	116973
#	145391
#	170473
#	197025
#	223677
#	244182
#	262910
#	278007
#	293171
#
# Disc length: 4276 seconds
#
# Revision: 1
# Processed by: cddbd v1.5.2PL0 Copyright (c) Steve Scherf et al.
# Submitted via: EasyCDDAExtractor 12.0.4.1
#
DISCID=d210b20f
DTITLE=Thomas Michael Riley - Live and Unplugged
DYEAR=2009
DGENRE=Texas Country
TTITLE0=Redneck Riviera
TTITLE1=American Dream
TTITLE2=Cow Pasture Pool
TTITLE3=Tommy
TTITLE4=Ring Of Fire
TTITLE5=Holler and Swaller
TTITLE6=Hemingway
TTITLE7=Perfectly Normal
TTITLE8=Small Time Big
TTITLE9=Postcards From Heaven
TTITLE10=Hope
TTITLE11=Jamaica
TTITLE12=I Think Love
TTITLE13=Heaven Yes
TTITLE14=What I Like About Texas
EXTD=
EXTT0=
EXTT1=
EXTT2=
EXTT3=
EXTT4=
EXTT5=
EXTT6=
EXTT7=
EXTT8=
EXTT9=
EXTT10=
EXTT11=
EXTT12=
EXTT13=
EXTT14=
PLAYORDER=
